<svg width="126" height="29" viewBox="0 0 126 29" fill="none" xmlns="http://www.w3.org/2000/svg">
<path d="M21.0852 28.5194L12.8359 28.3668C10.1649 28.3138 7.48731 28.4199 4.8688 27.8694C0.885256 27.0469 0.603061 23.0142 0.30774 19.6315C-0.0991455 14.8758 0.0583587 10.0339 0.826192 5.31803C1.25933 2.67156 2.96562 1.09297 5.60382 0.920517C14.5094 0.297038 23.474 0.369999 32.3598 0.66184C33.2983 0.688371 34.2433 0.834291 35.1687 1.00011C39.7363 1.80931 39.8479 6.37927 40.1432 10.2263C40.4385 14.1131 40.3138 18.0198 39.7494 21.88C39.2966 25.077 38.4303 27.7566 34.7749 28.0153C30.1942 28.3536 25.7184 28.6255 21.1245 28.5393C21.1245 28.5194 21.0983 28.5194 21.0852 28.5194ZM16.2354 20.4274C19.6873 18.4243 23.0737 16.4544 26.5059 14.4646C23.0474 12.4615 19.6676 10.4916 16.2354 8.50175V20.4274Z" fill="#FF6161"/>
<path d="M106.311 24.8848C106.153 25.5348 106.015 26.0455 105.878 26.5894H102.649V1.41784H106.416V10.7038C106.613 10.4517 106.711 10.3456 106.796 10.2329C107.44 9.33743 108.273 8.75374 109.349 8.52822C111.062 8.18995 112.526 8.95272 113.044 10.6176C113.379 11.6523 113.595 12.76 113.622 13.8411C113.674 16.6203 113.635 19.3928 113.536 22.1719C113.497 23.0209 113.241 23.8898 112.919 24.6858C111.863 27.3124 108.411 27.7103 106.698 25.4353C106.593 25.296 106.495 25.1434 106.311 24.8848ZM106.495 22.5633C106.495 23.3128 106.888 23.7704 107.63 23.9429C108.358 24.1153 108.949 23.8301 109.244 23.147C109.369 22.8617 109.494 22.5633 109.5 22.2648C109.572 19.4525 109.638 16.6402 109.658 13.8212C109.658 13.2972 109.533 12.7533 109.376 12.2426C109.08 11.3206 108.266 11.0487 107.466 11.586C106.862 11.9972 106.495 12.5809 106.495 13.3569V22.5633ZM96.2568 8.8864H100.201V26.6027H97.123C97.0115 25.9327 96.8999 25.2429 96.7687 24.4337C96.5586 24.7455 96.434 24.9444 96.3027 25.1434C95.2789 26.6358 93.8286 27.1465 92.1157 26.8746C90.6522 26.6358 89.7729 25.495 89.576 23.6245C89.5169 23.0674 89.4907 22.5036 89.4907 21.9464C89.4775 17.8009 89.4907 13.6421 89.4907 9.49661V8.87313H93.4808V9.59611C93.4808 13.6023 93.4676 17.6019 93.4939 21.6081C93.4939 22.1786 93.5529 22.7689 93.6514 23.3393C93.763 23.923 94.183 24.1352 94.7473 24.0954C95.6596 24.0225 96.2896 23.3393 96.2896 22.424V9.66907C96.2568 9.41039 96.2568 9.17161 96.2568 8.8864ZM69.1005 8.87313H73.0643V9.62264C73.0643 13.609 73.0512 17.5887 73.0774 21.5617C73.0774 22.1321 73.1299 22.7225 73.2481 23.2796C73.399 23.9363 73.7796 24.1485 74.4293 24.0623C75.3284 23.9363 75.8731 23.3061 75.8797 22.3842V8.89966H79.8238V26.6027H76.7591C76.6475 25.946 76.5359 25.2695 76.3916 24.4138C76.1947 24.7123 76.0831 24.8848 75.9716 25.0638C74.9478 26.5828 73.5106 27.1399 71.7583 26.868C70.3539 26.6557 69.4942 25.6077 69.2317 23.8898C69.1595 23.3526 69.107 22.8219 69.107 22.2847C69.0939 17.98 69.0939 13.6554 69.0939 9.35069L69.1005 8.87313ZM67.066 18.3315C67.0529 18.9285 67.0135 19.5254 66.9807 20.1224C66.8298 21.9133 66.7576 24.4536 65.3269 25.7603C64.4147 26.5828 63.2597 26.8812 62.0653 26.921C61.5337 26.9343 60.9956 26.9343 60.464 26.8613C57.9505 26.4766 56.7823 25.3557 56.3623 22.5633C55.8832 19.3397 55.8439 16.0631 56.4148 12.8396C57.0055 9.50325 59.0399 8.32261 62.2031 8.54149C65.1563 8.75374 66.4754 10.7104 66.8232 13.4962C67.0135 15.0947 67.1054 16.7131 67.066 18.3315ZM63.0497 17.7213C63.0497 16.5871 63.0759 15.4463 63.0365 14.312C63.0103 13.6554 62.925 12.9921 62.7872 12.3421C62.6297 11.5926 62.1572 11.2344 61.5665 11.2477C60.989 11.2609 60.5821 11.6191 60.3721 12.3156C60.2999 12.5742 60.2212 12.8396 60.2212 13.0982C60.2212 14.8758 60.208 16.6601 60.1949 18.4377C60.1818 20.0959 59.9718 21.8337 60.4902 23.4189C60.6477 23.9031 61.0546 24.1684 61.5862 24.1684C62.1047 24.1684 62.4459 23.9097 62.6362 23.4454C62.7872 23.0873 62.9184 22.6959 62.9184 22.3112C62.9644 20.7857 63.0497 19.2535 63.0497 17.7213ZM50.574 14.385C50.9219 12.6671 51.25 10.989 51.6109 9.30426C52.0638 7.16186 52.5691 5.01946 53.0154 2.87043C53.1269 2.34644 53.3369 2.22041 53.8291 2.23368C54.8857 2.27348 55.962 2.24694 57.0908 2.24694C56.7233 3.61331 56.3623 4.91334 56.0079 6.19347C54.8857 10.213 53.7635 14.2457 52.6544 18.2785C52.5691 18.5902 52.5297 18.9285 52.5297 19.2601C52.5166 21.4622 52.5297 23.6577 52.5297 25.8598V26.5761H48.6774C48.6643 26.3771 48.6381 26.1782 48.6381 25.9792C48.6381 24.7322 48.5396 23.4786 48.6512 22.2449C48.9334 19.28 48.0015 16.5539 47.2468 13.7947C46.2493 10.1466 45.2386 6.48532 44.2411 2.83727C44.1886 2.66481 44.1689 2.47909 44.1164 2.26684H48.0474C48.8743 6.29296 49.7078 10.3191 50.574 14.385ZM125.946 19.0081H119.305C119.377 20.3545 119.403 21.6347 119.541 22.9015C119.64 23.7837 120.119 24.1618 120.873 24.1684C121.661 24.1817 122.12 23.7837 122.304 22.9082C122.363 22.623 122.402 22.3378 122.429 22.0459C122.455 21.7872 122.468 21.5086 122.488 21.1372C123.61 21.1969 124.706 21.2632 125.789 21.3097C126.419 23.2 125.283 25.6276 123.374 26.3771C121.871 26.9741 120.329 26.9741 118.793 26.5164C117.658 26.1782 116.811 25.4485 116.43 24.3276C116.076 23.2796 115.741 22.1852 115.669 21.0908C115.472 18.3912 115.4 15.6651 115.807 12.9589C115.879 12.5079 116.004 12.0768 116.142 11.639C116.693 9.83489 117.894 8.72721 119.751 8.54149C120.762 8.442 121.805 8.48179 122.803 8.65425C124.417 8.93946 125.277 10.1135 125.651 11.6523C125.822 12.3753 125.946 13.1181 125.973 13.8544C125.979 15.5457 125.946 17.2238 125.946 19.0081ZM122.173 16.68C122.173 15.3468 122.186 14.0932 122.16 12.8329C122.16 12.5344 122.048 12.2227 121.936 11.9375C121.713 11.3803 121.247 11.2278 120.69 11.2278C120.132 11.2278 119.777 11.513 119.64 12.0237C119.22 13.5559 119.357 15.1212 119.37 16.6932C120.375 16.68 121.287 16.68 122.173 16.68Z" fill="#555555"/>
<path d="M82.8686 5.49727H78.9638V2.30025H90.619V5.47737H86.7405V26.5764H82.8751L82.8686 5.49727Z" fill="#555555"/>
</svg>
