<svg width="113" height="37" viewBox="0 0 113 37" fill="none" xmlns="http://www.w3.org/2000/svg">
<path d="M14.4396 0.0756836H15.4329C18.8811 0.151447 22.2732 1.55306 24.7094 4.0343C23.8099 4.9624 22.8916 5.85261 22.0108 6.78071C20.6427 5.53062 18.9936 4.56464 17.1945 4.22371C14.5333 3.65549 11.6661 4.16689 9.43594 5.70109C6.99968 7.31105 5.35052 10.0385 4.99445 12.9554C4.6009 15.8344 5.40674 18.8649 7.26204 21.0999C9.04239 23.2781 11.7598 24.6418 14.5708 24.7365C17.1945 24.8881 19.9306 24.0736 21.8421 22.2174C23.3414 20.9105 24.0348 18.9217 24.2596 16.9898C21.1487 16.9898 18.0378 17.0087 14.9269 16.9898V13.088H28.0265C28.7011 17.2739 27.7266 21.9901 24.5782 24.9828C22.4793 27.1041 19.5745 28.3542 16.6135 28.6005C13.7462 28.8846 10.7853 28.3353 8.23655 26.9337C5.18185 25.2858 2.74559 22.5015 1.5462 19.2248C0.421772 16.2132 0.403032 12.8039 1.4525 9.77335C2.40826 7.008 4.24483 4.56464 6.60613 2.85997C8.87372 1.17425 11.6286 0.24615 14.4396 0.0756836Z" fill="#555555"/>
<path d="M89.5894 1.0607H93.5998V28.108C92.2693 28.108 90.9199 28.127 89.5894 28.0891C89.6081 19.0923 89.5894 10.0765 89.5894 1.0607Z" fill="#555555"/>
<path d="M36.9464 10.4364C39.4202 9.9629 42.1001 10.4932 44.1428 11.9895C45.9981 13.3154 47.2912 15.3989 47.6847 17.6717C48.1907 20.3045 47.5535 23.1834 45.8669 25.2669C44.0491 27.5966 41.0693 28.8467 38.1646 28.6573C35.5034 28.5058 32.9172 27.161 31.343 24.9639C29.5627 22.5395 29.1316 19.2059 30.1061 16.3648C31.0807 13.3154 33.8355 10.9857 36.9464 10.4364ZM37.5086 14.0351C36.4967 14.3003 35.5596 14.8875 34.885 15.7208C33.0671 17.918 33.1796 21.4977 35.1848 23.5433C36.328 24.7176 38.0521 25.2669 39.6451 24.9449C41.1256 24.6798 42.4187 23.6759 43.1308 22.3501C44.3677 20.0961 44.0116 16.9899 42.1188 15.2284C40.9007 14.092 39.1203 13.6184 37.5086 14.0351Z" fill="#555555"/>
<path d="M56.8098 10.4363C59.6396 9.88699 62.7318 10.6825 64.8495 12.6902C68.2977 15.8155 68.6726 21.6682 65.7303 25.2669C63.95 27.5398 61.0639 28.7899 58.2154 28.6573C55.498 28.5815 52.8181 27.2178 51.2064 24.9638C49.3886 22.4826 48.995 19.0733 50.0258 16.1753C51.0565 13.2206 53.7551 10.9666 56.8098 10.4363ZM57.372 14.035C56.3601 14.3002 55.423 14.8874 54.7484 15.7018C52.9493 17.8611 53.0242 21.384 54.9545 23.4486C56.0977 24.6797 57.878 25.2858 59.5272 24.9449C60.989 24.6608 62.3008 23.6759 63.0129 22.35C64.2311 20.0771 63.875 16.9708 61.9635 15.2093C60.7453 14.0729 58.965 13.6183 57.372 14.035Z" fill="#555555"/>
<path d="M73.6596 11.5349C75.8147 10.1712 78.6821 9.79237 81.0059 10.9667C81.7368 11.2887 82.3364 11.838 82.9174 12.3872C82.9361 11.8758 82.9174 11.3455 82.9361 10.8152C84.1918 10.8341 85.4474 10.8152 86.7217 10.8341V27.5398C86.703 30.0589 86.0658 32.7296 84.2667 34.5668C82.299 36.5935 79.2817 37.2185 76.5644 36.8018C73.6596 36.3662 71.1296 34.2259 70.0052 31.5174C71.1296 30.9681 72.3103 30.5325 73.4722 30.0211C74.1281 31.5742 75.4587 32.9 77.1266 33.2031C78.7945 33.5061 80.7248 33.0894 81.8117 31.6878C82.9736 30.2483 82.9736 28.2785 82.9174 26.517C82.0553 27.3694 81.0621 28.127 79.8627 28.4111C77.2578 29.1498 74.3905 28.2406 72.3852 26.4602C70.3613 24.6798 69.1619 21.9334 69.2743 19.2059C69.3305 16.1186 71.0547 13.1449 73.6596 11.5349ZM77.5389 13.9593C76.3957 14.1487 75.3275 14.7927 74.5966 15.6829C72.835 17.8043 72.835 21.1947 74.6154 23.2782C75.6274 24.5093 77.2578 25.1912 78.832 25.0207C80.3125 24.8692 81.6805 23.9221 82.4114 22.6152C83.6483 20.3992 83.4421 17.3876 81.7742 15.4556C80.7435 14.2624 79.0943 13.6752 77.5389 13.9593Z" fill="#555555"/>
<path d="M98.4131 12.5009C100.662 10.3795 104.129 9.65978 107.015 10.7773C109.751 11.819 111.494 14.4518 112.375 17.1603C108.308 18.865 104.26 20.5507 100.193 22.2554C100.756 23.335 101.618 24.3199 102.78 24.7177C104.41 25.3048 106.359 25.0965 107.727 23.9979C108.271 23.5812 108.702 23.0319 109.114 22.5016C110.145 23.2024 111.175 23.8843 112.206 24.5851C110.744 26.8011 108.289 28.3543 105.647 28.6005C102.723 28.9604 99.6125 27.8239 97.7197 25.5132C94.6088 21.8766 94.9086 15.7776 98.4131 12.5009ZM100.418 16.0049C99.7811 16.933 99.5188 18.0695 99.5375 19.187C102.255 18.0505 104.972 16.9141 107.69 15.7587C107.24 14.698 106.153 14.054 105.047 13.8836C103.267 13.5616 101.412 14.5276 100.418 16.0049Z" fill="#555555"/>
</svg>
