<svg width="143" height="35" viewBox="0 0 143 35" fill="none" xmlns="http://www.w3.org/2000/svg">
<path d="M16.1377 0.459688C14.3111 0.666577 11.5712 1.52596 10.0123 2.38535C5.8238 4.66112 2.98946 8.21006 1.57229 12.9367C1.28886 13.8597 0.958184 16.3742 0.97393 17.5519C0.97393 18.5863 1.28886 21.1167 1.47781 21.7215C1.57229 22.008 1.77699 22.6923 1.9502 23.2175C2.23364 24.1087 3.60357 26.9096 3.83976 27.1006C3.887 27.1484 4.13894 27.4666 4.37514 27.8327C4.95775 28.708 6.48515 30.2676 7.63463 31.1588C8.51643 31.8431 11.0043 33.2914 11.3193 33.3073C11.398 33.3073 11.4138 32.7025 11.3665 31.9068C11.2563 30.1403 11.587 27.7372 12.2955 25.2864C12.4215 24.8726 12.516 24.3315 12.516 24.0928C12.516 23.854 12.579 23.5994 12.6577 23.5198C12.7364 23.4244 12.8782 22.9628 12.9569 22.4854C13.0514 22.008 13.2088 21.2759 13.3191 20.8621C13.4765 20.2414 13.4608 20.0027 13.2403 19.3343C12.9254 18.3158 12.9097 16.6607 13.2246 15.865C13.9647 13.9711 14.7835 13.255 16.1691 13.255C17.8383 13.255 18.6413 14.5281 18.3264 16.6607C18.1847 17.6315 17.791 19.1593 17.5391 19.6367C17.4761 19.7799 17.3659 20.1778 17.3186 20.512C17.2556 20.8621 17.1297 21.3555 17.0509 21.626C16.8305 22.2467 17.2556 23.4562 17.8225 23.9177C18.3579 24.3474 19.4759 24.4747 20.4994 24.236C21.2237 24.0768 21.5229 23.8859 22.2787 23.1538C23.1763 22.2626 23.8534 21.2281 23.8534 20.7348C23.8534 20.5916 23.9321 20.4006 24.0266 20.3051C24.4675 19.8595 24.7037 16.3901 24.373 14.926C24.0108 13.3186 22.8928 11.7431 21.4442 10.82C19.9955 9.88109 17.0037 9.61054 15.1614 10.2471C13.8702 10.6927 12.7207 11.4407 11.9806 12.316C11.3193 13.0958 10.6264 14.369 10.6264 14.8146C10.6264 14.9737 10.5477 15.1806 10.4532 15.2761C10.3587 15.3716 10.2485 15.9764 10.2013 16.6288C10.1226 17.5996 10.1855 18.0452 10.469 19.0001C10.6579 19.6526 11.0043 20.4165 11.2091 20.703C11.6342 21.2759 11.6342 21.4987 11.2405 23.0265C11.1303 23.4403 10.9414 23.8222 10.8311 23.87C9.83912 24.2519 7.82359 21.8488 7.1465 19.4616C6.89455 18.5545 6.87881 15.3239 7.13075 14.369C7.24097 13.9711 7.42993 13.43 7.5559 13.1436C7.68187 12.873 7.7921 12.6025 7.7921 12.5388C7.7921 12.4752 8.10702 11.9341 8.50068 11.3452C10.5477 8.22598 13.8702 6.57087 18.0745 6.57087C19.035 6.57087 20.027 6.63453 20.2947 6.7141C22.4677 7.39842 23.0503 7.62123 23.9006 8.13049C25.554 9.13311 26.7507 10.5018 27.9474 12.7934C28.0261 12.9367 28.1364 13.3186 28.1836 13.6369C28.2466 13.9552 28.3568 14.2576 28.4355 14.3053C28.5143 14.3531 28.5773 15.3875 28.5773 16.6129C28.5773 18.8251 28.4198 19.7163 27.7585 21.5305C27.0184 23.5198 25.1131 25.716 23.381 26.5754C22.389 27.0529 20.5309 27.578 19.7908 27.578C18.7988 27.578 16.8462 26.7505 16.3109 26.0821C16.0589 25.7797 15.8227 25.8911 15.8227 26.3208C15.8227 26.4799 15.7597 26.7505 15.6653 26.9096C15.5865 27.0529 15.4448 27.4985 15.3661 27.8963C14.9094 29.9971 14.2638 31.6999 13.2718 33.2914C12.9726 33.7847 13.2246 34.0712 14.0434 34.1826C14.4528 34.2462 15.0039 34.3576 15.2559 34.4372C15.8857 34.6441 19.3027 34.6123 20.4522 34.4054C21.4914 34.2144 23.1763 33.737 23.9321 33.4187C28.6875 31.4453 32.2934 27.4348 33.8523 22.3263C34.6868 19.6049 34.7341 16.4379 33.9783 13.255C33.7263 12.2205 33.6476 11.9818 32.9705 10.3904C31.9942 8.06683 29.7897 5.34545 27.5538 3.67442C25.6327 2.24212 23.7431 1.41456 20.7986 0.698406C19.9798 0.507432 17.0667 0.348286 16.1377 0.459688ZM58.1331 6.20483C57.519 6.30032 56.5428 7.31885 56.2908 8.11458C56.0231 8.98987 56.2908 9.92883 57.0466 10.6609C58.7158 12.3001 61.6131 10.7564 61.2509 8.40104C61.0305 6.90507 59.6763 5.9502 58.1331 6.20483ZM40.9696 7.14379C40.8279 7.30294 40.8279 26.4959 40.9854 26.7187C41.0641 26.846 41.7412 26.8937 43.0639 26.8778L45.0322 26.8619L45.1109 23.6312C45.1739 21.0053 45.2369 20.3688 45.4258 20.2574C45.5518 20.1778 46.6226 20.0982 47.8035 20.0982C50.3859 20.0982 51.4724 19.9072 52.6534 19.2707C54.1966 18.4272 55.0941 17.2177 55.5822 15.292C55.8814 14.0825 55.8814 13.2072 55.5665 11.9659C55.2831 10.8519 55.1571 10.5813 54.48 9.6742C53.6454 8.54427 52.7951 7.9236 51.4095 7.43025C50.6379 7.17562 49.9923 7.12788 45.8195 7.08013C43.2214 7.0483 41.0326 7.08013 40.9696 7.14379ZM49.6144 11.1065C50.6694 11.4407 51.189 11.9181 51.4252 12.7775C51.7244 13.9075 51.5039 14.9578 50.8426 15.5944C50.1183 16.2787 49.4727 16.4379 47.3626 16.4379C45.977 16.4379 45.5518 16.3901 45.3629 16.1832C45.1582 15.9923 45.1109 15.5307 45.1109 13.7165C45.1109 10.8519 45.0952 10.8678 47.2839 10.8678C48.2287 10.8678 49.142 10.9633 49.6144 11.1065ZM77.2335 10.1676C77.2335 11.2657 77.1547 12.3001 77.076 12.4752C76.9658 12.682 76.7453 12.7775 76.3674 12.7775C76.084 12.7775 75.8163 12.8412 75.7848 12.9367C75.769 13.0162 75.769 13.5733 75.8163 14.1621C75.895 15.2125 75.9108 15.2284 76.3831 15.3398C76.6508 15.3875 76.95 15.483 77.0445 15.5467C77.1862 15.6262 77.2335 16.8835 77.2335 20.0664C77.2335 24.3474 77.2492 24.5065 77.5956 25.1431C78.3199 26.4959 79.4537 26.9733 81.7527 26.9096L83.2958 26.8619L83.343 25.3182L83.3903 23.7586H82.9966C82.3983 23.7586 81.5165 23.2811 81.422 22.8992C81.3747 22.7082 81.3275 21.0213 81.3275 19.1274C81.3275 16.5174 81.3747 15.6421 81.5322 15.5148C81.6424 15.4193 82.0833 15.3239 82.5085 15.292L83.2958 15.2443V12.8571L82.4297 12.8094C81.9574 12.7775 81.5165 12.6661 81.4535 12.5706C81.3905 12.4592 81.3275 11.4248 81.3275 10.263V8.16232H77.2335V10.1676ZM135.763 8.25781C135.7 8.32146 135.652 9.32408 135.652 10.4858C135.652 12.7457 135.637 12.7775 134.771 12.7775C134.377 12.7775 134.377 12.7934 134.424 14.0029C134.471 15.2125 134.487 15.2443 134.897 15.292C135.117 15.3239 135.385 15.4353 135.463 15.5307C135.558 15.6421 135.652 17.5678 135.7 20.0186C135.747 22.374 135.826 24.5225 135.889 24.7771C136.078 25.4773 137.054 26.3685 137.983 26.6709C139.022 27.021 141.667 27.0529 141.935 26.7187C142.061 26.5754 142.108 26.0025 142.077 25.1749L142.03 23.8381L141.479 23.7426C140.88 23.6472 140.203 23.3289 140.03 23.0583C139.967 22.9628 139.904 21.2281 139.904 19.207C139.904 15.0533 139.809 15.3239 141.179 15.3239C142.077 15.3239 142.156 15.1647 142.077 13.7165L142.03 12.8571L141.006 12.7775L139.983 12.698L139.904 10.4699L139.825 8.24189L137.841 8.19415C136.755 8.17823 135.826 8.21006 135.763 8.25781ZM69.439 12.3956C68.6674 12.6025 67.7699 13.1277 67.1715 13.7483C66.4472 14.5122 66.2583 14.4645 66.1795 13.4937L66.1323 12.8571H62.1957V26.8619L64.1797 26.8937C66.1323 26.9415 66.1795 26.9255 66.274 26.5754C66.3212 26.3845 66.3685 24.3633 66.3685 22.0716C66.3685 17.536 66.3842 17.4087 67.3133 16.5174C67.7227 16.1196 67.9431 16.04 68.8249 15.9923L69.8484 15.9286L70.4625 16.5811C71.1869 17.345 71.1081 16.6129 71.1711 23.2015C71.1869 24.9521 71.2026 26.4959 71.2184 26.655C71.2498 26.8778 71.5018 26.9096 73.2654 26.8778L75.2652 26.8619V15.6899L74.8085 14.7828C74.0212 13.2072 72.8087 12.4592 70.9507 12.3638C70.2893 12.3478 69.6122 12.3478 69.439 12.3956ZM89.1219 12.3956C87.4213 12.8571 86.6025 13.3186 85.5475 14.369C84.1304 15.8172 83.4848 17.5041 83.4848 19.7799C83.5005 23.7745 85.9727 26.7346 89.6258 27.0847C92.7436 27.3871 95.1528 26.464 96.6959 24.3792C96.9164 24.0768 97.3888 23.1061 97.3888 22.931C97.3888 22.8673 96.4755 22.8037 95.3732 22.8037H93.3577L92.8853 23.297C92.3342 23.87 91.5626 24.236 90.854 24.236C90.1455 24.236 89.059 23.7267 88.5551 23.1856C88.1772 22.7559 87.626 21.5146 87.626 21.0849C87.626 20.9417 88.7755 20.8939 92.4759 20.8939C95.137 20.8939 97.3888 20.8303 97.499 20.7666C97.7352 20.6075 97.5147 18.0771 97.1683 17.154C96.4597 15.2284 95.1213 13.6051 93.7671 13.0322C93.3735 12.873 92.9168 12.6661 92.7593 12.5866C92.4287 12.4115 89.6258 12.2683 89.1219 12.3956ZM92.1925 15.8809C92.8066 16.3106 93.342 17.3291 93.2632 17.902C93.216 18.268 93.1845 18.268 90.5234 18.3158C87.4528 18.3635 87.4371 18.3476 87.9252 17.2018C88.2716 16.406 88.9645 15.6899 89.6101 15.483C90.3502 15.2443 91.5469 15.4353 92.1925 15.8809ZM112.427 12.3956C110.6 12.8889 109.325 13.7006 108.332 14.9578C107.939 15.4671 107.624 15.9445 107.624 16.04C107.624 16.1196 107.514 16.406 107.372 16.6766C107.23 16.9312 107.026 17.7269 106.915 18.4431C106.364 21.8488 107.876 25.0317 110.71 26.464L111.797 27.021H114.08C116.442 27.021 116.647 26.9733 118.095 26.1935C119.15 25.6206 120.882 23.3925 120.615 22.9469C120.552 22.8673 119.654 22.8037 118.599 22.8037H116.662L116.269 23.2652C114.694 25.0635 111.749 24.1405 111.12 21.6419C111.025 21.3077 111.025 21.0213 111.104 20.9576C111.183 20.9099 113.434 20.878 116.127 20.8939C119.969 20.8939 121.008 20.8621 121.024 20.703C121.166 18.7136 120.221 15.7695 119.04 14.4963C118.379 13.7801 117.229 12.9844 116.662 12.8412C116.41 12.7775 116.127 12.6661 116.017 12.5866C115.796 12.4115 112.915 12.2683 112.427 12.3956ZM114.883 15.4989C115.592 15.7535 116.41 16.6448 116.536 17.3291C116.725 18.3635 116.741 18.3635 113.812 18.3158C111.183 18.268 111.167 18.268 111.12 17.902C111.057 17.4564 111.608 16.3583 112.08 15.9445C112.757 15.3716 113.938 15.1806 114.883 15.4989ZM126.126 12.3956C122.898 13.1754 121.733 14.3372 121.717 16.7562C121.717 19.3661 123.008 20.4643 126.834 21.1486C129.464 21.6101 130.22 22.0239 130.188 23.0265C130.173 23.7426 129.685 24.2042 128.708 24.4111C127.48 24.6816 126.519 24.3792 125.748 23.5039L125.134 22.8037H123.229C121.685 22.8037 121.323 22.8514 121.323 23.0265C121.323 23.488 121.953 24.6975 122.473 25.3023C122.961 25.8274 123.339 26.0821 124.819 26.7982C124.961 26.8778 125.732 27.0051 126.504 27.1006C127.937 27.2757 130.425 27.1165 131.054 26.7982C131.196 26.7346 131.606 26.5277 131.952 26.3685C132.85 25.9388 133.7 24.9681 134.015 24.045C134.361 22.9947 134.267 21.5305 133.779 20.512C133.196 19.3184 131.653 18.459 129.354 18.0452C126.394 17.5201 126.346 17.5041 125.874 17.0426C125.307 16.4538 125.307 16.2469 125.874 15.6103C126.331 15.1011 126.362 15.0851 127.622 15.0851C128.881 15.0851 128.913 15.1011 129.37 15.6103C129.622 15.8968 129.826 16.231 129.826 16.3583C129.826 16.5493 130.157 16.597 131.795 16.597C133.968 16.597 133.905 16.6448 133.527 15.5148C132.834 13.5096 131.054 12.4911 128.094 12.3797C127.181 12.3478 126.299 12.3478 126.126 12.3956ZM105.183 12.7298C104.49 12.9685 103.53 13.7642 103.231 14.3372C102.931 14.9101 102.664 14.6714 102.585 13.7165L102.506 12.8571H98.5697L98.5225 19.5412C98.5068 23.2175 98.5225 26.3845 98.5697 26.5913C98.6485 26.9415 98.6957 26.9415 100.585 26.9096C101.672 26.8937 102.554 26.7982 102.617 26.7027C102.68 26.6232 102.743 24.9362 102.743 22.9628C102.743 19.8436 102.774 19.2866 103.042 18.5863C103.593 17.1381 104.774 16.2787 106.254 16.2787C106.663 16.2787 106.837 16.1992 106.884 15.9923C106.994 15.5307 107.01 13.3823 106.915 12.9048C106.821 12.5229 106.742 12.4592 106.317 12.4752C106.034 12.4911 105.53 12.6025 105.183 12.7298ZM56.6845 12.9685C56.6372 13.0799 56.6215 16.2151 56.6372 19.9391L56.6845 26.7027L58.5583 26.7823C59.692 26.8301 60.5108 26.7982 60.6368 26.7027C60.81 26.5754 60.8573 25.2227 60.8573 19.8118C60.873 16.1196 60.8258 13.0162 60.7785 12.9367C60.6211 12.698 56.7632 12.7298 56.6845 12.9685Z" fill="#555555"/>
</svg>
