<svg width="138" height="27" viewBox="0 0 138 27" fill="none" xmlns="http://www.w3.org/2000/svg">
<path d="M9.03566 26.4596H3.8841V13.4801H0.374756V9.25427H3.88396V6.24728C3.88396 2.68399 5.43609 0.128418 10.5737 0.128418C11.6603 0.128418 13.3663 0.349776 13.3663 0.349776V4.27371H11.5745C9.74877 4.27371 9.03594 4.83498 9.03594 6.3867V9.25427H13.2979L12.9184 13.4801H9.0358L9.03566 26.4596ZM20.8561 8.91657C20.781 8.91657 20.7038 8.91933 20.6273 8.92127C15.8505 8.92127 13.665 12.5528 13.665 17.7079C13.665 24.2019 16.4999 26.801 20.6647 26.801C23.0475 26.801 24.613 25.7873 25.5645 23.8957V26.4614H30.4644V9.25607H25.5645V11.902C24.7876 10.1997 23.1783 8.93674 20.8561 8.91657ZM22.1019 12.9821C24.1082 12.9821 25.3124 14.3965 25.3124 16.8023L25.3171 19.2595C25.3171 20.881 24.3225 22.778 22.1019 22.778C18.6882 22.778 18.7794 19.0525 18.7794 17.8117C18.7794 13.6378 20.5982 12.9821 22.1019 12.9821ZM32.4432 17.8596C32.4432 15.7689 32.3442 8.92776 41.1629 8.92776C44.7029 8.92776 46.181 10.0654 46.181 10.0654L44.993 13.7896C44.993 13.7896 43.5167 12.968 41.5932 12.968C39.1294 12.968 37.5573 14.4116 37.5573 16.9514L37.5601 18.7725C37.5601 21.213 39.0769 22.8421 41.5982 22.8421C43.3506 22.8421 44.9658 22.0128 44.9658 22.0128L46.1508 25.6593C46.1508 25.6593 44.7993 26.804 41.1877 26.804C32.7909 26.804 32.4434 20.6663 32.4434 17.8596H32.4432ZM74.9108 8.92127C79.6878 8.92127 81.9077 12.5528 81.9077 17.7079C81.9077 24.2019 79.0727 26.801 74.9079 26.801C72.5251 26.801 70.7637 25.7875 69.8121 23.8957V26.4614L64.9739 26.4594V0.651553L70.1108 0.19875V11.6689C70.8523 9.66217 73.2888 8.92127 74.9109 8.92127H74.9108ZM73.4706 12.9821C71.4643 12.9821 70.1108 14.3965 70.1108 16.8023L70.1061 19.2595C70.1031 20.881 71.0434 22.778 73.4706 22.778C76.8844 22.778 76.7932 19.0525 76.7932 17.8117C76.7932 13.6378 74.9745 12.9821 73.4706 12.9821ZM55.0941 8.9355C49.676 8.9355 46.8157 11.9211 46.8157 17.2268V18.2125C46.8157 25.0988 50.8325 26.8718 55.6214 26.8718C60.2761 26.8718 62.383 25.5559 62.383 25.5559L61.4218 22.0517C61.4218 22.0517 58.9434 23.1175 56.2373 23.1175C53.4319 23.1175 52.2254 22.3948 51.9161 19.67H62.7937V16.8588C62.7937 11.1035 59.5835 8.93536 55.0939 8.93536L55.0941 8.9355ZM55.2246 12.4443C57.1001 12.4443 58.3153 13.6067 58.2486 16.3024H51.9255C52.0352 13.4652 53.3457 12.4445 55.2246 12.4445V12.4443ZM92.1506 8.91187C86.5867 8.91187 83.6575 12.0808 83.6575 17.7597C83.6575 25.5515 88.7067 26.8057 92.1599 26.8057C97.215 26.8057 100.578 24.055 100.578 17.8305C100.578 11.3518 96.7967 8.91187 92.1506 8.91187ZM92.0806 12.9962C94.5271 12.9962 95.4965 14.8468 95.4965 16.9533V18.7644C95.4965 21.3162 94.14 22.7922 92.0713 22.7922C90.1365 22.7922 88.7767 21.4116 88.7767 18.7644V16.9533C88.7767 14.1301 90.3947 12.9962 92.0806 12.9962ZM110.812 8.91187C105.248 8.91187 102.319 12.0808 102.319 17.7597C102.319 25.5515 107.368 26.8057 110.821 26.8057C115.876 26.8057 119.24 24.055 119.24 17.8305C119.24 11.3518 115.458 8.91187 110.812 8.91187ZM110.742 12.9962C113.188 12.9962 114.158 14.8468 114.158 16.9533V18.7644C114.158 21.3162 112.801 22.7922 110.733 22.7922C108.798 22.7922 107.438 21.4116 107.438 18.7644V16.9533C107.438 14.1301 109.056 12.9962 110.742 12.9962ZM121.181 26.4596V0.651553L126.333 0.19875V17.4969L131.444 9.25427H136.885L131.553 17.7912L137.09 26.4596H131.634L126.333 18.0427V26.4596H121.181Z" fill="#555555"/>
</svg>
