<svg width="109" height="37" viewBox="0 0 109 37" fill="none" xmlns="http://www.w3.org/2000/svg">
<path d="M103.709 7.09325H98.9565V0.439453H88.5205L83.7212 7.09325H75.193L72.3413 9.94488V7.09325H65.6875V0.439453H44.7756V7.09325H15.3563L10.5561 0.439453H0.100098V23.2525L13.4077 36.5601H26.7153V32.7579L30.5175 36.5601H56.1821V32.7579L59.9843 36.5601H72.3413V32.7579L76.1435 36.5601H99.9071L108.462 28.0052V11.846L103.709 7.09325ZM16.2593 16.5987H9.60552V18.4998H16.2593V26.1041H5.80335L2.00118 22.3019V2.34054H9.60552V8.99434H16.2593V16.5987ZM44.7756 26.1041H21.9626L18.1604 22.3019V8.99434H25.7647V18.4998H27.6658V8.99434H35.2702V18.4998H37.1713V8.99434H44.7756V26.1041ZM54.281 26.1041H46.6767V8.99434H54.281V26.1041ZM54.281 7.09325H46.6767V2.34054H54.281V7.09325ZM70.4402 16.5987H63.7864V18.4998H70.4402V26.1041H59.9843L56.1821 22.3019V2.34054H63.7864V8.99434H70.4402V16.5987ZM87.55 16.5987H79.9457V18.4998H87.55V26.1041H76.1435L72.3413 22.3019V12.7965L76.1435 8.99434H87.55V16.5987ZM106.561 26.1041H98.9565V16.5987H97.0554V26.1041H89.4511V2.34054H97.0554V8.99434H102.759L106.561 12.7965V26.1041Z" fill="#555555"/>
</svg>
