<svg width="19" height="20" viewBox="0 0 19 20" fill="none" xmlns="http://www.w3.org/2000/svg">
<path d="M18.6706 7.41939C18.613 7.24958 18.5068 7.10037 18.3653 6.99018C18.2239 6.87999 18.0532 6.81365 17.8744 6.79934L12.6453 6.38383L10.3825 1.37482C10.3104 1.21349 10.1932 1.07646 10.045 0.980278C9.89676 0.884093 9.72387 0.832861 9.54717 0.832764C9.37048 0.832667 9.19753 0.883709 9.04921 0.979732C8.90088 1.07575 8.78352 1.21265 8.71128 1.3739L6.44846 6.38383L1.21931 6.79934C1.04362 6.81326 0.875656 6.8775 0.735518 6.98438C0.59538 7.09125 0.489 7.23624 0.429105 7.40199C0.36921 7.56774 0.358335 7.74724 0.397783 7.91901C0.437231 8.09078 0.52533 8.24755 0.651541 8.37056L4.51585 12.1376L3.14917 18.0556C3.10767 18.2348 3.12097 18.4222 3.18734 18.5937C3.25372 18.7652 3.3701 18.9128 3.52138 19.0173C3.67267 19.1218 3.85188 19.1785 4.03575 19.1799C4.21963 19.1813 4.39968 19.1274 4.55254 19.0252L9.54688 15.6956L14.5412 19.0252C14.6975 19.1289 14.8817 19.1823 15.0692 19.1782C15.2567 19.1741 15.4384 19.1126 15.59 19.0022C15.7415 18.8917 15.8556 18.7374 15.9169 18.5602C15.9781 18.3829 15.9836 18.1912 15.9327 18.0107L14.255 12.1404L18.4156 8.39625C18.688 8.15043 18.788 7.76702 18.6706 7.41939Z" fill="#F3CD03"/>
</svg>
