<svg width="36" height="36" viewBox="0 0 36 36" fill="none" xmlns="http://www.w3.org/2000/svg">
<path d="M-0.00012207 12.96C-0.00012207 8.32853 -0.00012207 6.01279 0.929753 4.25656C1.68015 2.8393 2.83918 1.68028 4.25644 0.929875C6.01267 0 8.3284 0 12.9599 0H23.0399C27.6714 0 29.9871 0 31.7433 0.929875C33.1606 1.68028 34.3196 2.8393 35.07 4.25656C35.9999 6.01279 35.9999 8.32853 35.9999 12.96V23.04C35.9999 27.6715 35.9999 29.9872 35.07 31.7434C34.3196 33.1607 33.1606 34.3197 31.7433 35.0701C29.9871 36 27.6714 36 23.0399 36H12.9599C8.3284 36 6.01267 36 4.25644 35.0701C2.83918 34.3197 1.68015 33.1607 0.929753 31.7434C-0.00012207 29.9872 -0.00012207 27.6715 -0.00012207 23.04V12.96Z" fill="#007E85" fill-opacity="0.1"/>
<path d="M19.4637 27V18.7894H22.3584L22.7918 15.5895H19.4636V13.5465C19.4636 12.6201 19.7338 11.9888 21.1293 11.9888L22.9089 11.988V9.12607C22.6011 9.08714 21.5446 9 20.3156 9C17.7496 9 15.9929 10.4912 15.9929 13.2297V15.5895H13.0908V18.7894H15.9929V26.9999L19.4637 27Z" fill="#00A3FF"/>
</svg>
