<svg width="36" height="36" viewBox="0 0 36 36" fill="none" xmlns="http://www.w3.org/2000/svg">
<path d="M-0.00012207 12.96C-0.00012207 8.32853 -0.00012207 6.01279 0.929753 4.25656C1.68015 2.8393 2.83918 1.68028 4.25644 0.929875C6.01267 0 8.3284 0 12.9599 0H23.0399C27.6714 0 29.9871 0 31.7433 0.929875C33.1606 1.68028 34.3196 2.8393 35.07 4.25656C35.9999 6.01279 35.9999 8.32853 35.9999 12.96V23.04C35.9999 27.6715 35.9999 29.9872 35.07 31.7434C34.3196 33.1607 33.1606 34.3197 31.7433 35.0701C29.9871 36 27.6714 36 23.0399 36H12.9599C8.3284 36 6.01267 36 4.25644 35.0701C2.83918 34.3197 1.68015 33.1607 0.929753 31.7434C-0.00012207 29.9872 -0.00012207 27.6715 -0.00012207 23.04V12.96Z" fill="#007E85" fill-opacity="0.1"/>
<path d="M8.9999 11.4199C8.9999 10.8427 9.20261 10.3665 9.60801 9.99134C10.0134 9.61616 10.5404 9.42857 11.1891 9.42857C11.8262 9.42857 12.3416 9.61326 12.7354 9.98268C13.1408 10.3636 13.3435 10.86 13.3435 11.4719C13.3435 12.026 13.1466 12.4877 12.7528 12.8571C12.3474 13.2381 11.8146 13.4286 11.1543 13.4286H11.137C10.4999 13.4286 9.98446 13.2381 9.59063 12.8571C9.1968 12.4762 8.9999 11.9971 8.9999 11.4199ZM9.22577 26.5714V15.0043H13.0829V26.5714H9.22577ZM15.22 26.5714H19.0771V20.1125C19.0771 19.7085 19.1235 19.3968 19.2161 19.1775C19.3783 18.785 19.6244 18.4531 19.9545 18.1818C20.2846 17.9105 20.6987 17.7749 21.1968 17.7749C22.4941 17.7749 23.1428 18.6465 23.1428 20.3896V26.5714H26.9999V19.9394C26.9999 18.2309 26.5945 16.9351 25.7837 16.0519C24.9729 15.1688 23.9014 14.7273 22.5694 14.7273C21.0752 14.7273 19.9111 15.368 19.0771 16.6493V16.684H19.0597L19.0771 16.6493V15.0043H15.22C15.2431 15.3737 15.2547 16.5224 15.2547 18.4502C15.2547 20.3781 15.2431 23.0851 15.22 26.5714Z" fill="#0085FF"/>
</svg>
