<svg width="36" height="36" viewBox="0 0 36 36" fill="none" xmlns="http://www.w3.org/2000/svg">
<path d="M-0.00012207 12.96C-0.00012207 8.32853 -0.00012207 6.01279 0.929753 4.25656C1.68015 2.8393 2.83918 1.68028 4.25644 0.929875C6.01267 0 8.3284 0 12.9599 0H23.0399C27.6714 0 29.9871 0 31.7433 0.929875C33.1606 1.68028 34.3196 2.8393 35.07 4.25656C35.9999 6.01279 35.9999 8.32853 35.9999 12.96V23.04C35.9999 27.6715 35.9999 29.9872 35.07 31.7434C34.3196 33.1607 33.1606 34.3197 31.7433 35.0701C29.9871 36 27.6714 36 23.0399 36H12.9599C8.3284 36 6.01267 36 4.25644 35.0701C2.83918 34.3197 1.68015 33.1607 0.929753 31.7434C-0.00012207 29.9872 -0.00012207 27.6715 -0.00012207 23.04V12.96Z" fill="#007E85" fill-opacity="0.1"/>
<path d="M17.9997 21.0832C19.7024 21.0832 21.0827 19.7029 21.0827 18.0002C21.0827 16.2975 19.7024 14.9172 17.9997 14.9172C16.297 14.9172 14.9167 16.2975 14.9167 18.0002C14.9167 19.7029 16.297 21.0832 17.9997 21.0832Z" fill="url(#paint0_linear_1437_396)"/>
<path fill-rule="evenodd" clip-rule="evenodd" d="M8.99988 18C8.99988 14.4049 8.99988 12.6073 9.85657 11.3126C10.2391 10.7344 10.7343 10.2392 11.3124 9.85669C12.6072 9 14.4047 9 17.9999 9C21.595 9 23.3926 9 24.6873 9.85669C25.2655 10.2392 25.7606 10.7344 26.1432 11.3126C26.9999 12.6073 26.9999 14.4049 26.9999 18C26.9999 21.5951 26.9999 23.3927 26.1432 24.6874C25.7606 25.2656 25.2655 25.7608 24.6873 26.1433C23.3926 27 21.595 27 17.9999 27C14.4047 27 12.6072 27 11.3124 26.1433C10.7343 25.7608 10.2391 25.2656 9.85657 24.6874C8.99988 23.3927 8.99988 21.5951 8.99988 18ZM22.6591 18.0002C22.6591 20.5735 20.573 22.6596 17.9997 22.6596C15.4264 22.6596 13.3403 20.5735 13.3403 18.0002C13.3403 15.4269 15.4264 13.3408 17.9997 13.3408C20.573 13.3408 22.6591 15.4269 22.6591 18.0002ZM22.8432 14.2015C23.4478 14.2015 23.938 13.7114 23.938 13.1067C23.938 12.5021 23.4478 12.0119 22.8432 12.0119C22.2385 12.0119 21.7483 12.5021 21.7483 13.1067C21.7483 13.7114 22.2385 14.2015 22.8432 14.2015Z" fill="url(#paint1_linear_1437_396)"/>
<defs>
<linearGradient id="paint0_linear_1437_396" x1="17.9999" y1="9" x2="17.9999" y2="27" gradientUnits="userSpaceOnUse">
<stop stop-color="#B88400"/>
<stop offset="1" stop-color="#FFB800" stop-opacity="0.5"/>
</linearGradient>
<linearGradient id="paint1_linear_1437_396" x1="17.9999" y1="9" x2="17.9999" y2="27" gradientUnits="userSpaceOnUse">
<stop stop-color="#B88400"/>
<stop offset="1" stop-color="#FFB800" stop-opacity="0.5"/>
</linearGradient>
</defs>
</svg>
