<svg width="36" height="36" viewBox="0 0 36 36" fill="none" xmlns="http://www.w3.org/2000/svg">
<path d="M-0.00012207 12.96C-0.00012207 8.32853 -0.00012207 6.01279 0.929753 4.25656C1.68015 2.8393 2.83918 1.68028 4.25644 0.929875C6.01267 0 8.3284 0 12.9599 0H23.0399C27.6714 0 29.9871 0 31.7433 0.929875C33.1606 1.68028 34.3196 2.8393 35.07 4.25656C35.9999 6.01279 35.9999 8.32853 35.9999 12.96V23.04C35.9999 27.6715 35.9999 29.9872 35.07 31.7434C34.3196 33.1607 33.1606 34.3197 31.7433 35.0701C29.9871 36 27.6714 36 23.0399 36H12.9599C8.3284 36 6.01267 36 4.25644 35.0701C2.83918 34.3197 1.68015 33.1607 0.929753 31.7434C-0.00012207 29.9872 -0.00012207 27.6715 -0.00012207 23.04V12.96Z" fill="#007E85" fill-opacity="0.1"/>
<path d="M21.0269 10.7014V10.6981H21.8709L22.1793 10.7597C22.3849 10.7997 22.5716 10.8521 22.7393 10.9169C22.907 10.9818 23.0693 11.0574 23.2262 11.1439C23.3831 11.2303 23.5254 11.3184 23.6531 11.408C23.7797 11.4967 23.8933 11.5907 23.9939 11.6901C24.0935 11.7906 24.2487 11.8165 24.4597 11.7679C24.6707 11.7192 24.898 11.6517 25.1414 11.5653C25.3849 11.4788 25.6257 11.3816 25.8637 11.2735C26.1018 11.1655 26.2468 11.0968 26.2987 11.0677C26.3496 11.0374 26.3766 11.0212 26.3799 11.019L26.3831 11.0142L26.448 10.9818L26.4513 10.9769L26.4561 10.9737L26.461 10.9704L26.4642 10.9656L26.4805 10.9607L26.4967 10.9575L26.4935 10.9818L26.4886 11.0061L26.4724 11.0547L26.4561 11.0871L26.448 11.1114C26.4426 11.1276 26.4372 11.1492 26.4318 11.1763C26.4264 11.2033 26.375 11.3113 26.2776 11.5004C26.1802 11.6895 26.0585 11.8813 25.9124 12.0758C25.7663 12.2703 25.6354 12.4173 25.5196 12.5167C25.4028 12.6172 25.3254 12.6874 25.2875 12.7274C25.2496 12.7685 25.2037 12.8063 25.1495 12.8409L25.0684 12.8944L25.0359 12.9106L25.0327 12.9154L25.0278 12.9187L25.0229 12.9219L25.0197 12.9268L24.9872 12.943L24.984 12.9478L24.9791 12.9511L24.9743 12.9543L24.971 12.9592L24.9678 12.9641L24.9629 12.9673L24.958 12.9705L24.9548 12.9754H25.0359L25.4904 12.8781C25.7934 12.8133 26.0828 12.735 26.3587 12.6431L26.87 12.4729L26.9349 12.4405L26.9674 12.4357L26.9999 12.4324V12.4648L26.9917 12.4681L26.9836 12.4729L26.9804 12.4778L26.9755 12.481L26.9706 12.4843L26.9674 12.4891L26.9642 12.494L26.9593 12.4973L26.9544 12.5005L26.9512 12.5054L26.9479 12.5102L26.9431 12.5135L26.9268 12.5459L26.922 12.5491C26.9198 12.5524 26.8511 12.6442 26.7158 12.8247C26.5806 13.0062 26.5075 13.098 26.4967 13.1002C26.4859 13.1034 26.4707 13.1197 26.4513 13.1488C26.4329 13.1791 26.3182 13.2996 26.1072 13.5103C25.8962 13.721 25.6895 13.9085 25.4872 14.0727C25.2837 14.238 25.1809 14.4412 25.1788 14.6821C25.1755 14.922 25.1631 15.1933 25.1414 15.4958C25.1198 15.7984 25.0792 16.1252 25.0197 16.4764C24.9602 16.8276 24.8682 17.2247 24.7438 17.6677C24.6193 18.1108 24.4678 18.543 24.2893 18.9644C24.1108 19.3858 23.9241 19.764 23.7293 20.099C23.5346 20.434 23.356 20.7176 23.1937 20.9499C23.0314 21.1823 22.8664 21.4011 22.6987 21.6064C22.531 21.8117 22.3189 22.0429 22.0625 22.3001C21.8049 22.5562 21.6643 22.6967 21.6405 22.7215C21.6156 22.7453 21.5095 22.8339 21.3223 22.9873C21.1362 23.1419 20.936 23.2964 20.7218 23.4509C20.5086 23.6043 20.3128 23.7324 20.1342 23.835C19.9557 23.9377 19.7404 24.0549 19.4882 24.1868C19.2372 24.3197 18.9656 24.4428 18.6734 24.5563C18.3813 24.6698 18.0729 24.7751 17.7483 24.8724C17.4237 24.9696 17.1099 25.0453 16.8069 25.0993C16.5039 25.1533 16.1604 25.1992 15.7762 25.2371L15.2 25.2938V25.3019H14.145V25.2938L14.0071 25.2857C13.9151 25.2803 13.8394 25.2749 13.7798 25.2695C13.7203 25.2641 13.4958 25.2344 13.1063 25.1803C12.7167 25.1263 12.411 25.0723 12.1892 25.0182C11.9674 24.9642 11.6374 24.8616 11.1991 24.7103C10.7609 24.559 10.386 24.4061 10.0743 24.2516C9.7638 24.0981 9.56903 24.0009 9.49003 23.9598C9.41212 23.9199 9.32448 23.8702 9.22709 23.8107L9.08101 23.7216L9.07779 23.7167L9.0729 23.7135L9.06803 23.7102L9.06478 23.7054L9.03232 23.6892L9.02909 23.6843L9.02421 23.6811L9.01934 23.6778L9.01609 23.673L9.01286 23.6681L9.00798 23.6648H8.99986V23.6324L9.01609 23.6357L9.03232 23.6405L9.10536 23.6486C9.15405 23.654 9.28661 23.6621 9.50302 23.673C9.71944 23.6838 9.94936 23.6838 10.1928 23.673C10.4363 23.6621 10.6852 23.6378 10.9394 23.6C11.1937 23.5622 11.494 23.4974 11.8403 23.4055C12.1865 23.3137 12.5047 23.2045 12.7946 23.0781C13.0836 22.9506 13.2891 22.8555 13.4114 22.7928C13.5326 22.7312 13.7176 22.6167 13.9665 22.4492L14.3398 22.198L14.3431 22.1931L14.3479 22.1899L14.3528 22.1866L14.356 22.1818L14.3593 22.1769L14.3642 22.1737L14.369 22.1704L14.3723 22.1656L14.3885 22.1607L14.4047 22.1575L14.408 22.1413L14.4128 22.125L14.4177 22.1218L14.421 22.1169L14.2911 22.1088C14.2046 22.1034 14.1207 22.098 14.0395 22.0926C13.9584 22.0872 13.8312 22.0629 13.6581 22.0197C13.485 21.9765 13.2983 21.9116 13.0981 21.8252C12.898 21.7388 12.7032 21.6361 12.5138 21.5172C12.3245 21.3984 12.1876 21.2995 12.1032 21.2206C12.0199 21.1428 11.9117 21.0326 11.7786 20.89C11.6466 20.7463 11.5319 20.5987 11.4345 20.4475C11.3371 20.2962 11.2441 20.1217 11.1553 19.9239L11.0206 19.629L11.0044 19.5803L10.9995 19.5641L10.9963 19.5479L11.0206 19.5512L11.0449 19.556L11.2235 19.5803C11.3425 19.5965 11.5292 19.6019 11.7834 19.5965C12.0377 19.5911 12.2136 19.5803 12.311 19.5641C12.4083 19.5479 12.4679 19.5371 12.4895 19.5317L12.522 19.5236L12.6031 19.5074L12.6064 19.5025L12.6112 19.4993L12.6161 19.496L12.6193 19.4912L12.457 19.4507C12.4354 19.4453 12.3975 19.4345 12.3434 19.4182C12.2893 19.402 12.1432 19.3426 11.9052 19.24C11.6671 19.1373 11.4778 19.0373 11.3371 18.9401C11.1961 18.8426 11.0616 18.7359 10.9346 18.6208C10.808 18.5041 10.6689 18.3539 10.5174 18.1702C10.366 17.9865 10.2307 17.7731 10.1117 17.53C9.99265 17.2868 9.90338 17.0545 9.84386 16.833C9.78459 16.6128 9.74548 16.3876 9.72702 16.1604L9.69779 15.82L9.71402 15.8232L9.73025 15.8281L9.79517 15.8605L10.0468 15.974C10.2145 16.0496 10.4228 16.1144 10.6716 16.1685C10.9205 16.2225 11.0693 16.2522 11.118 16.2576L11.191 16.2657H11.3371L11.3339 16.2608L11.329 16.2576L11.3241 16.2544L11.3209 16.2495L11.3176 16.2446L11.3128 16.2414L11.3079 16.2382L11.3046 16.2333L11.2722 16.2171L11.2689 16.2122L11.2641 16.209L11.2592 16.2057L11.2559 16.2009L11.2235 16.1847L11.2203 16.1798C11.217 16.1776 11.1705 16.1431 11.0807 16.0761C10.9919 16.008 10.8989 15.9199 10.8015 15.8119C10.7041 15.7038 10.6067 15.5904 10.5093 15.4715C10.4118 15.3524 10.3249 15.2249 10.2496 15.0906C10.1739 14.9555 10.0938 14.7837 10.0094 14.5752C9.92611 14.3677 9.86281 14.1586 9.81952 13.9479C9.77625 13.7372 9.7519 13.5292 9.74648 13.3239C9.74107 13.1186 9.74648 12.943 9.76271 12.7971C9.77894 12.6512 9.8114 12.4864 9.8601 12.3028C9.90879 12.1191 9.97913 11.9246 10.0711 11.7192L10.2091 11.4113L10.2253 11.3627L10.2302 11.3594L10.2334 11.3546L10.2367 11.3497L10.2415 11.3465L10.2464 11.3497L10.2496 11.3546L10.2529 11.3594L10.2578 11.3627L10.2626 11.3659L10.2659 11.3708L10.2691 11.3756L10.274 11.3789L10.2902 11.4113L10.2951 11.4145L10.2983 11.4194L10.5174 11.6625C10.6635 11.8246 10.8367 12.0056 11.0368 12.2055C11.237 12.4054 11.3479 12.5091 11.3696 12.5167C11.3912 12.5253 11.4183 12.5502 11.4507 12.5913C11.4832 12.6312 11.5914 12.7269 11.7753 12.8781C11.9593 13.0294 12.2 13.205 12.4976 13.4049C12.7952 13.6048 13.1252 13.802 13.4877 13.9965C13.8502 14.191 14.2397 14.3666 14.6563 14.5233C15.0729 14.68 15.3651 14.7826 15.5328 14.8313C15.7005 14.8799 15.9872 14.942 16.393 15.0177C16.7988 15.0933 17.1045 15.1419 17.3101 15.1635C17.5156 15.1851 17.6563 15.1976 17.7321 15.2008L17.8457 15.2041L17.8424 15.1797L17.8376 15.1554L17.8051 14.9528C17.7835 14.8178 17.7726 14.6287 17.7726 14.3855C17.7726 14.1424 17.7916 13.9182 17.8294 13.7129C17.8673 13.5076 17.9241 13.2996 17.9999 13.0889C18.0756 12.8782 18.1497 12.709 18.2222 12.5815C18.2958 12.4551 18.3921 12.3109 18.5111 12.1488C18.6302 11.9867 18.7844 11.8192 18.9737 11.6463C19.1631 11.4734 19.3795 11.3194 19.6229 11.1844C19.8664 11.0493 20.0909 10.9466 20.2965 10.8764C20.5021 10.8062 20.6753 10.7602 20.8159 10.7386C20.9566 10.717 21.0269 10.7046 21.0269 10.7014Z" fill="#6CCAFF"/>
</svg>
