<svg width="15" height="15" viewBox="0 0 15 15" fill="none" xmlns="http://www.w3.org/2000/svg">
<path d="M7.33337 3.73975C5.33337 3.73975 3.73962 5.36475 3.73962 7.3335C3.73962 9.3335 5.33337 10.9272 7.33337 10.9272C9.30212 10.9272 10.9271 9.3335 10.9271 7.3335C10.9271 5.36475 9.30212 3.73975 7.33337 3.73975ZM7.33337 9.67725C6.05212 9.67725 4.98962 8.646 4.98962 7.3335C4.98962 6.05225 6.02087 5.021 7.33337 5.021C8.61462 5.021 9.64587 6.05225 9.64587 7.3335C9.64587 8.646 8.61462 9.67725 7.33337 9.67725ZM11.8959 3.61475C11.8959 3.146 11.5209 2.771 11.0521 2.771C10.5834 2.771 10.2084 3.146 10.2084 3.61475C10.2084 4.0835 10.5834 4.4585 11.0521 4.4585C11.5209 4.4585 11.8959 4.0835 11.8959 3.61475ZM14.2709 4.4585C14.2084 3.3335 13.9584 2.3335 13.1459 1.521C12.3334 0.708496 11.3334 0.458496 10.2084 0.395996C9.05212 0.333496 5.58337 0.333496 4.42712 0.395996C3.30212 0.458496 2.33337 0.708496 1.48962 1.521C0.677124 2.3335 0.427124 3.3335 0.364624 4.4585C0.302124 5.61475 0.302124 9.0835 0.364624 10.2397C0.427124 11.3647 0.677124 12.3335 1.48962 13.1772C2.33337 13.9897 3.30212 14.2397 4.42712 14.3022C5.58337 14.3647 9.05212 14.3647 10.2084 14.3022C11.3334 14.2397 12.3334 13.9897 13.1459 13.1772C13.9584 12.3335 14.2084 11.3647 14.2709 10.2397C14.3334 9.0835 14.3334 5.61475 14.2709 4.4585ZM12.7709 11.4585C12.5521 12.0835 12.0521 12.5522 11.4584 12.8022C10.5209 13.1772 8.33337 13.0835 7.33337 13.0835C6.30212 13.0835 4.11462 13.1772 3.20837 12.8022C2.58337 12.5522 2.11462 12.0835 1.86462 11.4585C1.48962 10.5522 1.58337 8.36475 1.58337 7.3335C1.58337 6.3335 1.48962 4.146 1.86462 3.2085C2.11462 2.61475 2.58337 2.146 3.20837 1.896C4.11462 1.521 6.30212 1.61475 7.33337 1.61475C8.33337 1.61475 10.5209 1.521 11.4584 1.896C12.0521 2.11475 12.5209 2.61475 12.7709 3.2085C13.1459 4.146 13.0521 6.3335 13.0521 7.3335C13.0521 8.36475 13.1459 10.5522 12.7709 11.4585Z" fill="#172048"/>
</svg>
