<svg width="15" height="15" viewBox="0 0 15 15" fill="none" xmlns="http://www.w3.org/2000/svg">
<path d="M13.3334 0.333496H1.30212C0.770874 0.333496 0.333374 0.802246 0.333374 1.36475V13.3335C0.333374 13.896 0.770874 14.3335 1.30212 14.3335H13.3334C13.8646 14.3335 14.3334 13.896 14.3334 13.3335V1.36475C14.3334 0.802246 13.8646 0.333496 13.3334 0.333496ZM4.55212 12.3335H2.48962V5.67725H4.55212V12.3335ZM3.52087 4.73975C2.83337 4.73975 2.30212 4.2085 2.30212 3.55225C2.30212 2.896 2.83337 2.3335 3.52087 2.3335C4.17712 2.3335 4.70837 2.896 4.70837 3.55225C4.70837 4.2085 4.17712 4.73975 3.52087 4.73975ZM12.3334 12.3335H10.2396V9.0835C10.2396 8.3335 10.2396 7.3335 9.17712 7.3335C8.08337 7.3335 7.92712 8.17725 7.92712 9.05225V12.3335H5.86462V5.67725H7.83337V6.5835H7.86462C8.14587 6.05225 8.83337 5.48975 9.83337 5.48975C11.9271 5.48975 12.3334 6.896 12.3334 8.67725V12.3335Z" fill="#172048"/>
</svg>
