<svg width="17" height="14" viewBox="0 0 17 14" fill="none" xmlns="http://www.w3.org/2000/svg">
<path d="M14.6771 4.0835C15.3021 3.61475 15.8646 3.05225 16.3021 2.396C15.7396 2.646 15.0834 2.8335 14.4271 2.896C15.1146 2.48975 15.6146 1.86475 15.8646 1.0835C15.2396 1.4585 14.5209 1.73975 13.8021 1.896C13.1771 1.23975 12.3334 0.864746 11.3959 0.864746C9.58337 0.864746 8.11462 2.3335 8.11462 4.146C8.11462 4.396 8.14587 4.646 8.20837 4.896C5.48962 4.73975 3.05212 3.42725 1.42712 1.4585C1.14587 1.92725 0.989624 2.48975 0.989624 3.11475C0.989624 4.23975 1.55212 5.23975 2.45837 5.8335C1.92712 5.80225 1.39587 5.67725 0.958374 5.42725V5.4585C0.958374 7.05225 2.08337 8.36475 3.58337 8.67725C3.33337 8.73975 3.02087 8.80225 2.73962 8.80225C2.52087 8.80225 2.33337 8.771 2.11462 8.73975C2.52087 10.0522 3.73962 10.9897 5.17712 11.021C4.05212 11.896 2.64587 12.4272 1.11462 12.4272C0.833374 12.4272 0.583374 12.396 0.333374 12.3647C1.77087 13.3022 3.48962 13.8335 5.36462 13.8335C11.3959 13.8335 14.6771 8.86475 14.6771 4.521C14.6771 4.36475 14.6771 4.23975 14.6771 4.0835Z" fill="#172048"/>
</svg>
