<svg width="132" height="42" viewBox="0 0 132 42" fill="none" xmlns="http://www.w3.org/2000/svg">
<path d="M4.54772 15.32V32H1.81172V15.32H4.54772ZM14.8118 18.56C15.8518 18.56 16.7798 18.776 17.5958 19.208C18.4278 19.64 19.0758 20.28 19.5398 21.128C20.0038 21.976 20.2358 23 20.2358 24.2V32H17.5238V24.608C17.5238 23.424 17.2278 22.52 16.6358 21.896C16.0438 21.256 15.2358 20.936 14.2118 20.936C13.1878 20.936 12.3718 21.256 11.7638 21.896C11.1718 22.52 10.8758 23.424 10.8758 24.608V32H8.13984V18.776H10.8758V20.288C11.3238 19.744 11.8918 19.32 12.5798 19.016C13.2838 18.712 14.0278 18.56 14.8118 18.56ZM26.9178 21.008V28.328C26.9178 28.824 27.0298 29.184 27.2538 29.408C27.4938 29.616 27.8938 29.72 28.4538 29.72H30.1338V32H27.9738C26.7418 32 25.7978 31.712 25.1418 31.136C24.4858 30.56 24.1578 29.624 24.1578 28.328V21.008H22.5978V18.776H24.1578V15.488H26.9178V18.776H30.1338V21.008H26.9178ZM44.7755 25.064C44.7755 25.56 44.7435 26.008 44.6795 26.408H34.5755C34.6555 27.464 35.0475 28.312 35.7515 28.952C36.4555 29.592 37.3195 29.912 38.3435 29.912C39.8155 29.912 40.8555 29.296 41.4635 28.064H44.4155C44.0155 29.28 43.2875 30.28 42.2315 31.064C41.1915 31.832 39.8955 32.216 38.3435 32.216C37.0795 32.216 35.9435 31.936 34.9355 31.376C33.9435 30.8 33.1595 30 32.5835 28.976C32.0235 27.936 31.7435 26.736 31.7435 25.376C31.7435 24.016 32.0155 22.824 32.5595 21.8C33.1195 20.76 33.8955 19.96 34.8875 19.4C35.8955 18.84 37.0475 18.56 38.3435 18.56C39.5915 18.56 40.7035 18.832 41.6795 19.376C42.6555 19.92 43.4155 20.688 43.9595 21.68C44.5035 22.656 44.7755 23.784 44.7755 25.064ZM41.9195 24.2C41.9035 23.192 41.5435 22.384 40.8395 21.776C40.1355 21.168 39.2635 20.864 38.2235 20.864C37.2795 20.864 36.4715 21.168 35.7995 21.776C35.1275 22.368 34.7275 23.176 34.5995 24.2H41.9195ZM50.204 20.696C50.604 20.024 51.132 19.504 51.788 19.136C52.46 18.752 53.252 18.56 54.164 18.56V21.392H53.468C52.396 21.392 51.58 21.664 51.02 22.208C50.476 22.752 50.204 23.696 50.204 25.04V32H47.468V18.776H50.204V20.696ZM75.4469 15.152V32H71.3429V21.896L67.5749 32H64.2629L60.4709 21.872V32H56.3669V15.152H61.2149L65.9429 26.816L70.6229 15.152H75.4469ZM91.0222 25.088C91.0222 25.472 90.9982 25.872 90.9502 26.288H81.6622C81.7262 27.12 81.9902 27.76 82.4542 28.208C82.9342 28.64 83.5182 28.856 84.2062 28.856C85.2302 28.856 85.9422 28.424 86.3422 27.56H90.7102C90.4862 28.44 90.0782 29.232 89.4862 29.936C88.9102 30.64 88.1822 31.192 87.3022 31.592C86.4222 31.992 85.4382 32.192 84.3502 32.192C83.0382 32.192 81.8702 31.912 80.8462 31.352C79.8222 30.792 79.0222 29.992 78.4462 28.952C77.8702 27.912 77.5822 26.696 77.5822 25.304C77.5822 23.912 77.8622 22.696 78.4222 21.656C78.9982 20.616 79.7982 19.816 80.8222 19.256C81.8462 18.696 83.0222 18.416 84.3502 18.416C85.6462 18.416 86.7982 18.688 87.8062 19.232C88.8142 19.776 89.5982 20.552 90.1582 21.56C90.7342 22.568 91.0222 23.744 91.0222 25.088ZM86.8222 24.008C86.8222 23.304 86.5822 22.744 86.1022 22.328C85.6222 21.912 85.0222 21.704 84.3022 21.704C83.6142 21.704 83.0302 21.904 82.5502 22.304C82.0862 22.704 81.7982 23.272 81.6862 24.008H86.8222ZM92.3712 25.28C92.3712 23.904 92.6272 22.696 93.1392 21.656C93.6672 20.616 94.3792 19.816 95.2752 19.256C96.1712 18.696 97.1712 18.416 98.2752 18.416C99.1552 18.416 99.9552 18.6 100.675 18.968C101.411 19.336 101.987 19.832 102.403 20.456V14.24H106.507V32H102.403V30.08C102.019 30.72 101.467 31.232 100.747 31.616C100.043 32 99.2192 32.192 98.2752 32.192C97.1712 32.192 96.1712 31.912 95.2752 31.352C94.3792 30.776 93.6672 29.968 93.1392 28.928C92.6272 27.872 92.3712 26.656 92.3712 25.28ZM102.403 25.304C102.403 24.28 102.115 23.472 101.539 22.88C100.979 22.288 100.291 21.992 99.4752 21.992C98.6592 21.992 97.9632 22.288 97.3872 22.88C96.8272 23.456 96.5472 24.256 96.5472 25.28C96.5472 26.304 96.8272 27.12 97.3872 27.728C97.9632 28.32 98.6592 28.616 99.4752 28.616C100.291 28.616 100.979 28.32 101.539 27.728C102.115 27.136 102.403 26.328 102.403 25.304Z" fill="#172048"/>
<path d="M118.5 13H116V10H118.5V7.5H121.5V10H124V13H121.5V15.5H118.5V13ZM120 2L112 5V11.09C112 16.14 115.41 20.85 120 22C124.59 20.85 128 16.14 128 11.09V5L120 2Z" fill="url(#paint0_linear_202_5)"/>
<defs>
<linearGradient id="paint0_linear_202_5" x1="109.5" y1="2" x2="126.5" y2="20.5" gradientUnits="userSpaceOnUse">
<stop stop-color="#51D9DB"/>
<stop offset="1" stop-color="#017399"/>
</linearGradient>
</defs>
</svg>
