<svg width="155" height="41" viewBox="0 0 155 41" fill="none" xmlns="http://www.w3.org/2000/svg">
<path d="M54.872 30V13.08H57.968V30H54.872ZM61.4523 30V20.904C61.4523 20.408 61.4363 19.904 61.4043 19.392C61.3723 18.88 61.3243 18.376 61.2603 17.88H64.1643L64.4043 20.28H64.1163C64.5003 19.432 65.0683 18.784 65.8203 18.336C66.5723 17.872 67.4443 17.64 68.4363 17.64C69.8603 17.64 70.9323 18.04 71.6523 18.84C72.3723 19.64 72.7323 20.888 72.7323 22.584V30H69.7323V22.728C69.7323 21.752 69.5403 21.056 69.1563 20.64C68.7883 20.208 68.2283 19.992 67.4763 19.992C66.5483 19.992 65.8123 20.28 65.2683 20.856C64.7243 21.432 64.4523 22.2 64.4523 23.16V30H61.4523ZM81.0973 30.24C79.6573 30.24 78.5693 29.864 77.8333 29.112C77.0973 28.36 76.7293 27.232 76.7293 25.728V20.136H74.4013V17.88H76.7293V14.784L79.7293 14.016V17.88H82.9693V20.136H79.7293V25.536C79.7293 26.368 79.8893 26.952 80.2093 27.288C80.5293 27.624 80.9693 27.792 81.5293 27.792C81.8333 27.792 82.0893 27.768 82.2973 27.72C82.5213 27.672 82.7373 27.608 82.9453 27.528V29.904C82.6733 30.016 82.3693 30.096 82.0333 30.144C81.7133 30.208 81.4013 30.24 81.0973 30.24ZM90.7458 30.24C88.7138 30.24 87.1218 29.68 85.9698 28.56C84.8178 27.44 84.2418 25.904 84.2418 23.952C84.2418 22.688 84.4898 21.584 84.9858 20.64C85.4818 19.696 86.1698 18.96 87.0498 18.432C87.9458 17.904 88.9858 17.64 90.1698 17.64C91.3378 17.64 92.3138 17.888 93.0978 18.384C93.8818 18.88 94.4738 19.576 94.8738 20.472C95.2898 21.368 95.4978 22.416 95.4978 23.616V24.408H86.6658V22.824H93.3618L92.9538 23.16C92.9538 22.04 92.7138 21.184 92.2338 20.592C91.7698 20 91.0898 19.704 90.1938 19.704C89.2018 19.704 88.4338 20.056 87.8898 20.76C87.3618 21.464 87.0978 22.448 87.0978 23.712V24.024C87.0978 25.336 87.4178 26.32 88.0578 26.976C88.7138 27.616 89.6338 27.936 90.8178 27.936C91.5058 27.936 92.1458 27.848 92.7378 27.672C93.3458 27.48 93.9218 27.176 94.4658 26.76L95.3538 28.776C94.7778 29.24 94.0898 29.6 93.2898 29.856C92.4898 30.112 91.6418 30.24 90.7458 30.24ZM98.0143 30V20.976C98.0143 20.464 97.9983 19.944 97.9663 19.416C97.9503 18.888 97.9103 18.376 97.8463 17.88H100.75L101.086 21.192H100.606C100.766 20.392 101.03 19.728 101.398 19.2C101.782 18.672 102.246 18.28 102.79 18.024C103.334 17.768 103.926 17.64 104.566 17.64C104.854 17.64 105.086 17.656 105.262 17.688C105.438 17.704 105.614 17.744 105.79 17.808L105.766 20.448C105.462 20.32 105.198 20.24 104.974 20.208C104.766 20.176 104.502 20.16 104.182 20.16C103.494 20.16 102.91 20.304 102.43 20.592C101.966 20.88 101.614 21.28 101.374 21.792C101.15 22.304 101.038 22.888 101.038 23.544V30H98.0143ZM107.724 30V13.08H110.436L116.652 27.072H115.908L122.124 13.08H124.812V30H122.004V17.448H122.868L117.18 30H115.332L109.644 17.448H110.532V30H107.724ZM134.199 30.24C132.167 30.24 130.575 29.68 129.423 28.56C128.271 27.44 127.695 25.904 127.695 23.952C127.695 22.688 127.943 21.584 128.439 20.64C128.935 19.696 129.623 18.96 130.503 18.432C131.399 17.904 132.439 17.64 133.623 17.64C134.791 17.64 135.767 17.888 136.551 18.384C137.335 18.88 137.927 19.576 138.327 20.472C138.743 21.368 138.951 22.416 138.951 23.616V24.408H130.119V22.824H136.815L136.407 23.16C136.407 22.04 136.167 21.184 135.687 20.592C135.223 20 134.543 19.704 133.647 19.704C132.655 19.704 131.887 20.056 131.343 20.76C130.815 21.464 130.551 22.448 130.551 23.712V24.024C130.551 25.336 130.871 26.32 131.511 26.976C132.167 27.616 133.087 27.936 134.271 27.936C134.959 27.936 135.599 27.848 136.191 27.672C136.799 27.48 137.375 27.176 137.919 26.76L138.807 28.776C138.231 29.24 137.543 29.6 136.743 29.856C135.943 30.112 135.095 30.24 134.199 30.24ZM146.195 30.24C145.139 30.24 144.203 29.992 143.387 29.496C142.587 28.984 141.963 28.256 141.515 27.312C141.067 26.368 140.843 25.24 140.843 23.928C140.843 22.616 141.067 21.496 141.515 20.568C141.963 19.624 142.587 18.904 143.387 18.408C144.203 17.896 145.139 17.64 146.195 17.64C147.203 17.64 148.091 17.888 148.859 18.384C149.643 18.864 150.163 19.52 150.419 20.352H150.107V12.336H153.107V30H150.155V27.432H150.443C150.187 28.296 149.667 28.984 148.883 29.496C148.115 29.992 147.219 30.24 146.195 30.24ZM147.035 27.936C147.979 27.936 148.739 27.608 149.315 26.952C149.891 26.28 150.179 25.272 150.179 23.928C150.179 22.584 149.891 21.584 149.315 20.928C148.739 20.272 147.979 19.944 147.035 19.944C146.091 19.944 145.323 20.272 144.731 20.928C144.155 21.584 143.867 22.584 143.867 23.928C143.867 25.272 144.155 26.28 144.731 26.952C145.323 27.608 146.091 27.936 147.035 27.936Z" fill="#233348"/>
<circle cx="20.5" cy="20.5" r="20.5" fill="#458FF6"/>
<path d="M19.344 31V15.426H13.286V12.67H28.756V15.426H22.698V31H19.344Z" fill="white"/>
</svg>
