<svg width="546" height="39" viewBox="0 0 546 39" fill="none" xmlns="http://www.w3.org/2000/svg">
<circle cx="273" cy="14" r="12.5" stroke="#E2EAF3" stroke-width="3"/>
<path d="M268.613 11.4433L268.599 11.4313L268.584 11.4203C268.186 11.1252 267.623 11.1575 267.262 11.5181C266.866 11.9144 266.866 12.5568 267.262 12.9531L272.066 17.757L272.079 17.77L272.093 17.7819L272.151 17.8318L272.165 17.8438L272.18 17.8548C272.577 18.1499 273.141 18.1176 273.501 17.757L278.305 12.9531L278.318 12.9401L278.33 12.9263L278.38 12.8686L278.392 12.8546L278.403 12.8398C278.698 12.4421 278.666 11.8786 278.305 11.5181L278.292 11.5051L278.278 11.4932L278.221 11.4433L278.207 11.4313L278.192 11.4203C277.794 11.1252 277.231 11.1575 276.87 11.5181C276.87 11.5181 276.87 11.5181 276.87 11.5181L272.784 15.6043L268.697 11.5181L268.684 11.5051L268.67 11.4932L268.613 11.4433Z" fill="#E2EAF3" stroke="#E2EAF3"/>
<g filter="url(#filter0_d_217_15)">
<line x1="15" y1="13.1" x2="238.018" y2="13.1" stroke="#E2EAF3" stroke-width="1.8"/>
</g>
<g filter="url(#filter1_d_217_15)">
<line x1="307" y1="13.1" x2="530.018" y2="13.1" stroke="#E2EAF3" stroke-width="1.8"/>
</g>
<defs>
<filter id="filter0_d_217_15" x="0" y="7.20001" width="253.018" height="31.8" filterUnits="userSpaceOnUse" color-interpolation-filters="sRGB">
<feFlood flood-opacity="0" result="BackgroundImageFix"/>
<feColorMatrix in="SourceAlpha" type="matrix" values="0 0 0 0 0 0 0 0 0 0 0 0 0 0 0 0 0 0 127 0" result="hardAlpha"/>
<feOffset dy="10"/>
<feGaussianBlur stdDeviation="7.5"/>
<feColorMatrix type="matrix" values="0 0 0 0 0.592 0 0 0 0 0.592 0 0 0 0 0.592 0 0 0 0.08 0"/>
<feBlend mode="normal" in2="BackgroundImageFix" result="effect1_dropShadow_217_15"/>
<feBlend mode="normal" in="SourceGraphic" in2="effect1_dropShadow_217_15" result="shape"/>
</filter>
<filter id="filter1_d_217_15" x="292" y="7.20001" width="253.018" height="31.8" filterUnits="userSpaceOnUse" color-interpolation-filters="sRGB">
<feFlood flood-opacity="0" result="BackgroundImageFix"/>
<feColorMatrix in="SourceAlpha" type="matrix" values="0 0 0 0 0 0 0 0 0 0 0 0 0 0 0 0 0 0 127 0" result="hardAlpha"/>
<feOffset dy="10"/>
<feGaussianBlur stdDeviation="7.5"/>
<feColorMatrix type="matrix" values="0 0 0 0 0.592 0 0 0 0 0.592 0 0 0 0 0.592 0 0 0 0.08 0"/>
<feBlend mode="normal" in2="BackgroundImageFix" result="effect1_dropShadow_217_15"/>
<feBlend mode="normal" in="SourceGraphic" in2="effect1_dropShadow_217_15" result="shape"/>
</filter>
</defs>
</svg>
